<svg xmlns="http://www.w3.org/2000/svg" style="display:none">
  
  <symbol id="logo" viewBox="0 0 106 31"><title>Slides Framework</title><path d="M17.413 14.04c-.56-5.84-5.6-7-8.52-7-4.6 0-8.6 2.92-8.6 7.52 0 3 2.4 4.88 5.28 5.8 4.24 1.64 5.88 1.84 5.88 3.36 0 1.08-1.2 1.72-2.32 1.72-.28 0-2.24 0-2.52-2.04h-6.6c.6 5.84 5.68 7.36 9.04 7.36 4.92 0 9.04-2.88 9.04-7.76 0-4.8-4-5.92-7.76-6.96-1.76-.52-3.4-1.2-3.4-2.2 0-.6.48-1.48 1.88-1.48 1.96 0 2.04 1.2 2.08 1.68h6.52zm2.222 15.96h6.64v-29.6h-6.64v29.6zm9.662-24.56h6.64v-5.04h-6.64v5.04zm0 24.56h6.64v-22.2h-6.64v22.2zm32.782-29.6h-6.64v9.28c-.72-.72-2.6-2.64-6.52-2.64-5.64 0-11 4.28-11 11.8 0 6.68 4.4 11.88 11.12 11.88 4.48 0 6.08-2.2 6.72-3.12v2.4h6.32v-29.6zm-17.52 18.4c0-2.56 1.8-5.56 5.64-5.56 1.56 0 2.96.56 3.96 1.56 1 .96 1.64 2.32 1.64 3.92.08 1.64-.52 3.08-1.56 4.12s-2.52 1.68-4.12 1.68c-3.12 0-5.56-2.28-5.56-5.68v-.04zm42.502 2.4c.52-4.08-.32-7.64-3.12-10.64-2.08-2.2-5-3.52-8.4-3.52-6.76 0-11.64 5.72-11.64 11.92 0 6.6 5.4 11.76 11.76 11.76 2.28 0 4.48-.68 6.32-2 1.88-1.28 3.44-3.2 4.52-5.68h-6.8c-.8 1.16-1.92 2.08-4.04 2.08-2.6 0-4.84-1.56-5.12-3.92h16.52zm-16.44-5.04c.16-1.04 1.52-3.52 4.96-3.52s4.8 2.48 4.96 3.52h-9.92zm34.502-2.12c-.56-5.84-5.6-7-8.52-7-4.6 0-8.6 2.92-8.6 7.52 0 3 2.4 4.88 5.28 5.8 4.24 1.64 5.88 1.84 5.88 3.36 0 1.08-1.2 1.72-2.32 1.72-.28 0-2.24 0-2.52-2.04h-6.6c.6 5.84 5.68 7.36 9.04 7.36 4.92 0 9.04-2.88 9.04-7.76 0-4.8-4-5.92-7.76-6.96-1.76-.52-3.4-1.2-3.4-2.2 0-.6.48-1.48 1.88-1.48 1.96 0 2.04 1.2 2.08 1.68h6.52z"/></symbol>

  <symbol id="logo-icon" viewBox="0 0 50 41"><title>Slides Framework</title><path d="M4,12h42c2.2,0,4,1.8,4,4v21c0,2.2-1.8,4-4,4H4c-2.2,0-4-1.8-4-4V16C0,13.8,1.8,12,4,12z"/><path opacity="0.6" d="M45.5,9h-41C3.7,9,3,8.3,3,7.5v0C3,6.7,3.7,6,4.5,6h41C46.3,6,47,6.7,47,7.5v0C47,8.3,46.3,9,45.5,9z"/><path opacity="0.4" d="M7.5,0h35C43.3,0,44,0.7,44,1.5v0C44,2.3,43.3,3,42.5,3h-35C6.7,3,6,2.3,6,1.5v0C6,0.7,6.7,0,7.5,0z"/></symbol>
  
  <symbol id="close" viewBox="0 0 30 30"><path d="M15 0c-8.3 0-15 6.7-15 15s6.7 15 15 15 15-6.7 15-15-6.7-15-15-15zm5.7 19.3c.4.4.4 1 0 1.4-.2.2-.4.3-.7.3s-.5-.1-.7-.3l-4.3-4.3-4.3 4.3c-.2.2-.4.3-.7.3s-.5-.1-.7-.3c-.4-.4-.4-1 0-1.4l4.3-4.3-4.3-4.3c-.4-.4-.4-1 0-1.4s1-.4 1.4 0l4.3 4.3 4.3-4.3c.4-.4 1-.4 1.4 0s.4 1 0 1.4l-4.3 4.3 4.3 4.3z"/></symbol>
  
  <symbol id="close-small" viewBox="0 0 11 11"><path d="M6.914 5.5l3.793-3.793c.391-.391.391-1.023 0-1.414s-1.023-.391-1.414 0l-3.793 3.793-3.793-3.793c-.391-.391-1.023-.391-1.414 0s-.391 1.023 0 1.414l3.793 3.793-3.793 3.793c-.391.391-.391 1.023 0 1.414.195.195.451.293.707.293s.512-.098.707-.293l3.793-3.793 3.793 3.793c.195.195.451.293.707.293s.512-.098.707-.293c.391-.391.391-1.023 0-1.414l-3.793-3.793z"/></symbol>

  <symbol id="arrow-left" viewBox="0 0 29 56"><path d="M28.7.3c.4.4.4 1 0 1.4l-26.3 26.3 26.3 26.3c.4.4.4 1 0 1.4-.4.4-1 .4-1.4 0l-27-27c-.4-.4-.4-1 0-1.4l27-27c.3-.3 1-.4 1.4 0z"/></symbol>
  
  <symbol id="arrow-right" viewBox="0 0 29 56"><path d="M.3 55.7c-.4-.4-.4-1 0-1.4l26.3-26.3-26.3-26.3c-.4-.4-.4-1 0-1.4.4-.4 1-.4 1.4 0l27 27c.4.4.4 1 0 1.4l-27 27c-.3.3-1 .4-1.4 0z"/></symbol>

  <symbol id="back" viewBox="0 0 20 20"><path d="M2.3 10.7l5 5c.4.4 1 .4 1.4 0s.4-1 0-1.4l-3.3-3.3h11.6c.6 0 1-.4 1-1s-.4-1-1-1h-11.6l3.3-3.3c.4-.4.4-1 0-1.4-.2-.2-.4-.3-.7-.3s-.5.1-.7.3l-5 5c-.2.2-.3.5-.3.7 0 .2.1.5.3.7z"/></symbol>
  
  <symbol id="menu" viewBox="0 0 18 18"><path d="M16 5h-14c-.6 0-1-.4-1-1 0-.5.4-1 1-1h14c.5 0 1 .4 1 1s-.4 1-1 1zm-14 5h14c.5 0 1-.4 1-1 0-.5-.4-1-1-1h-14c-.6 0-1 .4-1 1s.4 1 1 1zm14 3h-14c-.5 0-1 .4-1 1 0 .5.4 1 1 1h14c.5 0 1-.4 1-1s-.4-1-1-1z"/></symbol>
  
  <symbol id="share" viewBox="0 0 18 18"><path d="M16 8c-.6 0-1 .4-1 1v6h-12v-6c0-.6-.4-1-1-1s-1 .4-1 1v6c0 1.1.9 2 2 2h12c1.1 0 2-.9 2-2v-6c0-.6-.4-1-1-1zm-2.3-2.3c.4-.4.4-1 0-1.4l-4-4c-.4-.4-1-.4-1.4 0l-4 4c-.4.4-.4 1 0 1.4s1 .4 1.4 0l2.3-2.3v7.6c0 .6.4 1 1 1s1-.4 1-1v-7.6l2.3 2.3c.4.4 1 .4 1.4 0z"/></symbol>

  <symbol id="arrow-down" viewBox="0 0 24 24"><path d="M12 18c-.2 0-.5-.1-.7-.3l-11-10c-.4-.4-.4-1-.1-1.4.4-.4 1-.4 1.4-.1l10.4 9.4 10.3-9.4c.4-.4 1-.3 1.4.1.4.4.3 1-.1 1.4l-11 10c-.1.2-.4.3-.6.3z"/></symbol>
  
  <symbol id="arrow-up" viewBox="0 0 24 24"><path d="M11.9 5.9c.2 0 .5.1.7.3l11 10c.4.4.4 1 .1 1.4-.4.4-1 .4-1.4.1l-10.4-9.4-10.3 9.4c-.4.4-1 .3-1.4-.1-.4-.4-.3-1 .1-1.4l11-10c.1-.2.4-.3.6-.3z"/></symbol>
  
  <symbol id="arrow-top" viewBox="0 0 18 18"><path d="M15.7 7.3l-6-6c-.4-.4-1-.4-1.4 0l-6 6c-.4.4-.4 1 0 1.4.4.4 1 .4 1.4 0l4.3-4.3v11.6c0 .6.4 1 1 1s1-.4 1-1v-11.6l4.3 4.3c.2.2.4.3.7.3s.5-.1.7-.3c.4-.4.4-1 0-1.4z"/></symbol>
  
  <symbol id="play" viewBox="0 0 30 30"><path d="M7 30v-30l22 15z"/></symbol>
  
  <symbol id="chat" viewBox="0 0 18 18"><path d="M5,17c-0.2,0-0.3,0-0.4-0.1C4.2,16.7,4,16.4,4,16v-2H2c-1.1,0-2-0.9-2-2V3c0-1.1,0.9-2,2-2h14c1.1,0,2,0.9,2,2v9 c0,1.1-0.9,2-2,2H9.3l-3.7,2.8C5.4,16.9,5.2,17,5,17z M2,12h3.5C5.8,12,6,12.2,6,12.5V14l2.4-1.8C8.6,12.1,8.8,12,9,12h7V3H2V12z M13,7H5C4.4,7,4,6.6,4,6s0.4-1,1-1h8c0.6,0,1,0.4,1,1S13.6,7,13,7z M13,10H5c-0.6,0-1-0.4-1-1s0.4-1,1-1h8c0.6,0,1,0.4,1,1 S13.6,10,13,10z"/></symbol>

  <symbol id="mail" viewBox="0 0 18 18"><path d="M16 2h-14c-1.1 0-2 .9-2 2v10c0 1.1.9 2 2 2h14c1.1 0 2-.9 2-2v-10c0-1.1-.9-2-2-2zm0 2v.5l-7 4.3-7-4.4v-.4h14zm-14 10v-7.2l6.5 4c.1.1.3.2.5.2s.4-.1.5-.2l6.5-4v7.2h-14z"/></symbol>

  <symbol id="sound-on" viewBox="0 0 18 18"><path d="M8.5,0.1C8.1-0.1,7.7,0,7.4,0.2L3.7,3H2C0.9,3,0,3.9,0,5v6c0,1.1,0.9,2,2,2h1.7l3.7,2.8C7.6,15.9,7.8,16,8,16 c0.2,0,0.3,0,0.4-0.1C8.8,15.7,9,15.4,9,15V1C9,0.6,8.8,0.3,8.5,0.1z M7,13l-2.4-1.8C4.4,11.1,4.2,11,4,11l-2,0l0-6h2 c0.2,0,0.4-0.1,0.6-0.2L7,3V13z M11.7,9.9l0.7,1.9C13.9,11.2,15,9.7,15,8c0-1.7-1.1-3.2-2.7-3.8l-0.7,1.9C12.5,6.4,13,7.2,13,8C13,8.9,12.5,9.6,11.7,9.9z M12.2,1.1l-0.3,2C14.3,3.5,16,5.6,16,8s-1.8,4.5-4.2,4.9l0.3,2C15.6,14.3,18,11.4,18,8C18,4.6,15.6,1.7,12.2,1.1z"/></symbol>
  
  <symbol id="sound-off" viewBox="0 0 18 18"><path d="M15.9,8l1.8-1.8c0.4-0.4,0.4-1,0-1.4s-1-0.4-1.4,0l-1.8,1.8l-1.8-1.8c-0.4-0.4-1-0.4-1.4,0s-0.4,1,0,1.4L13.1,8l-1.8,1.8 c-0.4,0.4-0.4,1,0,1.4c0.2,0.2,0.5,0.3,0.7,0.3s0.5-0.1,0.7-0.3l1.8-1.8l1.8,1.8c0.2,0.2,0.5,0.3,0.7,0.3s0.5-0.1,0.7-0.3 c0.4-0.4,0.4-1,0-1.4L15.9,8z M8.5,0.1C8.1-0.1,7.7,0,7.4,0.2L3.7,3H2C0.9,3,0,3.9,0,5v6c0,1.1,0.9,2,2,2h1.7l3.7,2.8C7.6,15.9,7.8,16,8,16 c0.2,0,0.3,0,0.4-0.1C8.8,15.7,9,15.4,9,15V1C9,0.6,8.8,0.3,8.5,0.1z M7,13l-2.4-1.8C4.4,11.1,4.2,11,4,11l-2,0l0-6h2 c0.2,0,0.4-0.1,0.6-0.2L7,3V13z"/></symbol>
  
  <!-- social -->
    
  <symbol id="instagram" viewBox="0 0 20 20"><circle cx="10" cy="10" r="3.3"/><path d="M13,0H7C2.2,0,0,2.2,0,7v6c0,4.8,2.1,7,7,7h6c4.8,0,7-2.2,7-7V7C20,2.2,17.9,0,13,0z M10,15.1c-2.8,0-5.1-2.3-5.1-5.1 S7.2,4.9,10,4.9s5.1,2.3,5.1,5.1S12.8,15.1,10,15.1z M15.3,5.9c-0.7,0-1.2-0.5-1.2-1.2c0-0.7,0.5-1.2,1.2-1.2s1.2,0.5,1.2,1.2 C16.5,5.3,16,5.9,15.3,5.9z"/></symbol>
  
  <symbol id="linkedin" viewBox="0 0 24 24"><path d="M5.9 21.9h-4.7v-14.2h4.7v14.2zm-2.3-16.1c-1.6 0-2.6-1.1-2.6-2.5s1-2.5 2.7-2.5c1.6 0 2.6 1 2.6 2.5-.1 1.4-1.2 2.5-2.7 2.5zm19.2 16.1h-4.7v-7.6c0-2-.7-3.3-2.3-3.3-1.3 0-2.1.9-2.5 1.7-.1.3-.1.8-.1 1.2v7.9h-4.7v-14.1h4.7v2c.7-.9 1.7-2.3 4.3-2.3 3.1 0 5.5 2.1 5.5 6.4v8.2h-.2z"/></symbol>

  <symbol id="medium" viewBox="0 0 130.8 104"><path d="M15.5 21.2c.2-1.6-.5-3.2-1.7-4.3l-12.1-14.7v-2.2h38l29.3 64.4 25.8-64.4h36.2v2.2l-10.5 10c-.9.7-1.3 1.8-1.2 2.9v73.7c0 1.1.3 2.2 1.2 2.9l10.2 10v2.2h-51.3v-2.2l10.6-10.2c1-1 1-1.3 1-2.9v-59.6l-29.4 74.7h-4l-34.2-74.7v50.3c0 2.2.4 4.2 1.9 5.7l13.7 16.8v2.2h-39v-2.2l13.8-16.7c1.5-1.5 1.8-3.3 1.8-5.7l-.1-58.2z"/></symbol>
  
  <symbol id="twitter" viewBox="0 1 24 23"><path d="M21.5 7.6v.6c0 6.6-5 14.1-14 14.1-2.8 0-5.4-.8-7.6-2.2l1.2.1c2.3 0 4.4-.8 6.1-2.1-2.2 0-4-1.5-4.6-3.4.3.1.6.1.9.1.5 0 .9-.1 1.3-.2-2.1-.6-3.8-2.6-3.8-5 .7.4 1.4.6 2.2.6-1.3-.9-2.2-2.4-2.2-4.1 0-.9.2-1.8.7-2.5 2.4 3 6.1 5 10.2 5.2-.1-.4-.1-.7-.1-1.1 0-2.7 2.2-5 4.9-5 1.4 0 2.7.6 3.6 1.6 1-.3 2.1-.7 3-1.3-.4 1.2-1.1 2.1-2.2 2.7 1-.1 1.9-.4 2.8-.8-.6 1.1-1.4 2-2.4 2.7z"/></symbol>
  
  <symbol id="whatsapp" viewBox="0 0 512 512"><path d="M256.064 0h-.128c-141.152 0-255.936 114.816-255.936 256 0 56 18.048 107.904 48.736 150.048l-31.904 95.104 98.4-31.456c40.48 26.816 88.768 42.304 140.832 42.304 141.152 0 255.936-114.848 255.936-256s-114.784-256-255.936-256zm148.96 361.504c-6.176 17.44-30.688 31.904-50.24 36.128-13.376 2.848-30.848 5.12-89.664-19.264-75.232-31.168-123.68-107.616-127.456-112.576-3.616-4.96-30.4-40.48-30.4-77.216s18.656-54.624 26.176-62.304c6.176-6.304 16.384-9.184 26.176-9.184 3.168 0 6.016.16 8.576.288 7.52.32 11.296.768 16.256 12.64 6.176 14.88 21.216 51.616 23.008 55.392 1.824 3.776 3.648 8.896 1.088 13.856-2.4 5.12-4.512 7.392-8.288 11.744-3.776 4.352-7.36 7.68-11.136 12.352-3.456 4.064-7.36 8.416-3.008 15.936 4.352 7.36 19.392 31.904 41.536 51.616 28.576 25.44 51.744 33.568 60.032 37.024 6.176 2.56 13.536 1.952 18.048-2.848 5.728-6.176 12.8-16.416 20-26.496 5.12-7.232 11.584-8.128 18.368-5.568 6.912 2.4 43.488 20.48 51.008 24.224 7.52 3.776 12.48 5.568 14.304 8.736 1.792 3.168 1.792 18.048-4.384 35.52z"/></symbol>
  
  <symbol id="youtube" viewBox="0 0 24 24"><path d="M23.6 6.3c-.3-1.2-1.4-2.2-2.6-2.3-3-.3-6-.3-9-.3s-6 0-9 .3c-1.2.1-2.3 1.1-2.6 2.3-.4 1.8-.4 3.8-.4 5.7 0 1.9 0 3.9.4 5.7.3 1.2 1.4 2.2 2.6 2.3 3 .3 6 .3 9 .3s6 0 9-.3c1.3-.1 2.3-1.1 2.6-2.4.4-1.7.4-3.7.4-5.6 0-1.9 0-3.9-.4-5.7zm-14.1 9v-6.6l6.5 3.3-6.5 3.3z"/></symbol>

</svg>